<?xml version="1.0" encoding="UTF-8" standalone="no"?>
<svg
   shape-rendering="geometricPrecision"
   text-rendering="geometricPrecision"
   image-rendering="optimizeQuality"
   fill-rule="evenodd"
   clip-rule="evenodd"
   viewBox="0 0 512 512.00001"
   version="1.1"
   id="svg8"
   sodipodi:docname="icon.svg"
   width="512"
   height="512"
   inkscape:version="1.1.2 (0a00cf5339, 2022-02-04)"
   inkscape:export-filename="/home/powellj/workspace/MapTileProvider/icon.png"
   inkscape:export-xdpi="24"
   inkscape:export-ydpi="24"
   xmlns:inkscape="http://www.inkscape.org/namespaces/inkscape"
   xmlns:sodipodi="http://sodipodi.sourceforge.net/DTD/sodipodi-0.dtd"
   xmlns="http://www.w3.org/2000/svg"
   xmlns:svg="http://www.w3.org/2000/svg"
   xmlns:rdf="http://www.w3.org/1999/02/22-rdf-syntax-ns#"
   xmlns:cc="http://creativecommons.org/ns#"
   xmlns:dc="http://purl.org/dc/elements/1.1/">
  <title
     id="title833">Country Location icon</title>
  <defs
     id="defs12" />
  <sodipodi:namedview
     id="namedview10"
     pagecolor="#505050"
     bordercolor="#ffffff"
     borderopacity="1"
     inkscape:pageshadow="0"
     inkscape:pageopacity="0"
     inkscape:pagecheckerboard="1"
     showgrid="false"
     inkscape:zoom="1.4047249"
     inkscape:cx="211.4293"
     inkscape:cy="255.56606"
     inkscape:window-width="1920"
     inkscape:window-height="1131"
     inkscape:window-x="0"
     inkscape:window-y="32"
     inkscape:window-maximized="1"
     inkscape:current-layer="svg8" />
  <path
     fill="#2394e0"
     d="m 258.46,88.857 c 3.289,0.037 6.559,0.16 9.808,0.35 l 0.002,0.003 a 201.6,201.6 0 0 0 -2.467,-0.128 c 2.594,31.529 16.938,61.876 36.479,86.403 13.735,17.241 31.144,33.137 51.852,46.292 5.47,3.47 12.311,3.022 17.234,-0.594 20.503,-12.655 38.023,-29.538 51.787,-49.269 l 0.002,-10e-4 0.235,-0.339 0.18,-0.26 -0.004,0.005 c 27.543,35.706 43.932,80.452 43.932,129.022 0,116.797 -94.712,211.502 -211.503,211.502 C 139.207,511.848 44.5,417.14 44.5,300.341 44.5,184.657 137.428,90.631 252.699,88.87 c 1.921,-0.03 3.841,-0.034 5.761,-0.013 z"
     id="path2" />
  <path
     fill="#a1e367"
     d="M 84.975,409.608 A 197.972,197.972 0 0 1 57.727,346.867 l 37.251,17.963 0.19,11.113 c 0,4.084 -6.972,12.773 -9.181,16.074 z M 413.419,184.646 c 18.345,25.696 30.741,55.93 35.158,88.698 l -6.723,-0.721 c -1.194,5.148 -2.291,5.277 -2.291,11.475 0,5.467 6.884,9.126 6.884,20.665 0,3.092 -7.26,9.274 -7.579,10.352 l -10.783,-12.648 v 16.071 l -1.637,-0.062 -2.906,-29.657 -6.021,1.898 -7.164,-22.062 -23.597,24.629 -0.283,18.036 -7.703,5.167 -8.183,-46.259 -4.894,3.577 -11.086,-14.959 -16.568,0.493 -6.347,-7.254 -6.497,1.786 -12.777,-14.642 -2.469,1.679 7.917,20.234 9.187,10e-4 v -4.593 l 4.589,0.002 c 3.311,9.151 6.888,3.731 6.888,9.188 0,19.094 -23.585,33.133 -39.033,36.727 0.825,3.453 0.506,6.895 4.587,6.895 8.652,0 4.352,-1.515 13.782,-2.296 -0.439,19.508 -22.377,42.806 -31.744,57.33 l 4.194,29.914 c 1.104,6.497 -13.49,13.37 -18.453,20.687 l 2.381,11.459 -6.722,2.716 c -1.178,11.773 -12.606,24.834 -25.427,24.834 l -13.771,-0.002 c 0,-16.119 -11.484,-39.126 -11.484,-50.518 0,-9.673 4.588,-10.974 4.588,-22.957 0,-11.071 -11.474,-26.947 -11.474,-29.845 v -18.368 h -9.186 c -1.364,-5.119 -0.531,-6.886 -6.885,-6.886 h -2.297 c -10.03,0 -8.335,4.59 -18.367,4.59 h -9.189 c -8.281,0 -22.957,-26.579 -22.957,-29.85 v -27.55 c 0,-11.891 10.881,-24.833 18.369,-29.854 v -11.474 l 10.333,-10.506 5.74,-0.977 c 12.319,0 10.857,-6.885 18.369,-6.885 l 20.667,0.002 v 16.071 l 22.721,9.702 2.141,-9.804 c 10.297,2.413 12.974,6.994 25.659,6.994 h 4.588 c 8.713,0 9.182,-11.56 9.182,-20.661 l -18.394,1.818 -8.001,-17.433 -7.956,2.117 c 1.429,6.237 2.211,3.645 2.211,8.906 0,3.097 -2.552,3.442 -4.596,4.592 l -7.956,-20.19 -17.104,-12.217 -2.272,2.232 14.566,15.326 c -1.935,5.496 -2.163,21.373 -10.193,10.253 l 7.511,-3.614 -18.721,-19.618 -11.215,4.386 -11.07,10.602 c -1.157,8.54 -3.485,12.837 -12.42,12.837 -5.949,0 -2.357,-1.54 -11.484,-2.296 v -22.957 h 20.662 l -6.695,-15.291 -2.483,1.514 v -4.596 l 33.552,-15.469 c -0.633,-4.817 -1.404,-2.234 -1.404,-7.488 0,-0.314 2.254,-4.551 2.296,-4.599 l 8.678,5.388 -2.074,-9.883 -13.39,2.754 -2.484,-12.014 c 10.616,-5.591 33.976,-25.266 41.405,-25.266 l 6.892,-0.002 c 4.995,0 15.76,3.394 23.014,6.916 0.344,1.33 0.708,2.656 1.091,3.977 l -12.686,-1.286 13.67,11.261 0.997,-3.651 c 6.526,19.331 16.935,37.491 29.489,53.248 13.735,17.241 31.144,33.137 51.852,46.292 5.47,3.47 12.311,3.022 17.234,-0.594 15.941,-9.839 30.079,-22.235 42.051,-36.537 z"
     id="path4" />
  <path
     fill="#ef4136"
     d="m 397.688,176.548 c -9.285,10.181 -20.099,19.302 -32.242,26.678 a 4.549,4.549 0 0 1 -5.182,0.166 c -17.941,-11.412 -33.007,-25.117 -44.851,-40.018 -16.347,-20.498 -26.628,-43.224 -30.15,-65.116 -3.589,-22.192 -0.232,-43.556 10.815,-60.913 4.351,-6.862 9.916,-13.107 16.693,-18.507 15.582,-12.408 33.373,-18.969 51.113,-18.836 17.077,0.132 33.938,6.495 48.505,19.8 5.117,4.652 9.42,9.985 12.941,15.764 11.877,19.568 14.434,44.518 9.219,69.801 -5.149,24.983 -17.939,50.366 -36.861,71.129 z M 360.496,39.47 c 21.062,0 38.123,17.076 38.123,38.123 0,21.064 -17.077,38.124 -38.123,38.124 -21.064,0 -38.123,-17.06 -38.123,-38.124 C 322.357,56.53 339.432,39.47 360.496,39.47 Z"
     id="path6" />
  <metadata
     id="metadata829">
    <rdf:RDF>
      <cc:Work
         rdf:about="">
        <cc:license
           rdf:resource="https://uxwing.com/license/" />
        <dc:creator>
          <cc:Agent>
            <dc:title>https://uxwing.com/</dc:title>
          </cc:Agent>
        </dc:creator>
        <dc:title>Country Location icon</dc:title>
        <dc:source>https://uxwing.com/country-location-icon/</dc:source>
      </cc:Work>
    </rdf:RDF>
  </metadata>
</svg>
