<?xml version="1.0" encoding="UTF-8" standalone="no"?>
<svg
   height="32"
   version="1.1"
   viewBox="0 0 32 32"
   width="32"
   id="svg5"
   sodipodi:docname="tile.svg"
   inkscape:version="1.1.2 (0a00cf5339, 2022-02-04)"
   xmlns:inkscape="http://www.inkscape.org/namespaces/inkscape"
   xmlns:sodipodi="http://sodipodi.sourceforge.net/DTD/sodipodi-0.dtd"
   xmlns="http://www.w3.org/2000/svg"
   xmlns:svg="http://www.w3.org/2000/svg">
  <defs
     id="defs9" />
  <sodipodi:namedview
     id="namedview7"
     pagecolor="#505050"
     bordercolor="#ffffff"
     borderopacity="1"
     inkscape:pageshadow="0"
     inkscape:pageopacity="0"
     inkscape:pagecheckerboard="1"
     showgrid="false"
     inkscape:zoom="14.919953"
     inkscape:cx="15.147501"
     inkscape:cy="15.315062"
     inkscape:window-width="1920"
     inkscape:window-height="1016"
     inkscape:window-x="0"
     inkscape:window-y="27"
     inkscape:window-maximized="1"
     inkscape:current-layer="svg5" />
  <g
     id="layer1"
     style="fill:#f7f7f7;fill-opacity:1"
     transform="matrix(1.599203,0,0,1.6469875,0.014006,-1.2938442)">
    <path
       d="M 9.9921875,2 A 0.50005,0.50005 0 0 0 9.7675781,2.056641 l -9.49999998,5 a 0.50005,0.50005 0 0 0 0,0.8867188 L 9.7675781,12.943359 a 0.50005,0.50005 0 0 0 0.4648439,0 l 9.5,-4.9999996 a 0.50005,0.50005 0 0 0 0,-0.8867188 l -9.5,-5 A 0.50005,0.50005 0 0 0 9.9921875,2 Z M 10,3.0664062 18.425781,7.5 10,11.935547 1.5742188,7.5 Z M 0.4921875,9.9960938 A 0.50005,0.50005 0 0 0 0.26757812,10.943359 l 9.49999998,5 a 0.50005,0.50005 0 0 0 0.4648439,0 l 9.5,-5 A 0.50058684,0.50058684 0 1 0 19.267578,10.056641 L 10,14.935547 0.73242188,10.056641 A 0.50005,0.50005 0 0 0 0.4921875,9.9960938 Z m 0,3.0000002 a 0.50005,0.50005 0 0 0 -0.22460938,0.947265 l 9.49999998,5 a 0.50005,0.50005 0 0 0 0.4648439,0 l 9.5,-5 A 0.50058684,0.50058684 0 1 0 19.267578,13.056641 L 10,17.935547 0.73242188,13.056641 A 0.50005,0.50005 0 0 0 0.4921875,12.996094 Z"
       style="fill:#f7f7f7;fill-opacity:1;stroke:none;stroke-width:0px"
       id="path2" />
  </g>
</svg>
